<svg width="440" height="202" viewBox="0 0 440 202" fill="none" xmlns="http://www.w3.org/2000/svg">
    <path d="M12.2216 17.6754C79.099 13.7749 146.395 12.2093 213.355 14.2942C250.54 15.4533 293.647 14.5416 329.01 27.8431C362.034 40.2652 310.004 73.9114 297.212 83.0459C275.947 98.236 150.36 171.417 226.343 196.447C262.316 208.297 308.68 194.443 344.341 187.723C396.9 177.82 451.531 164.602 505.366 168.363C522.462 169.558 567.463 174.409 563.308 199.171C560.304 217.074 537.136 231.621 523.659 241.091C507.341 252.557 444.15 276.874 461.756 304.582C470 317.558 489.174 321.601 503.149 323.168C535.961 326.846 567.204 317.813 599.26 312.634C618.007 309.606 770.587 296.839 752.611 339.896C743.949 360.64 715.001 374.583 696.866 385.462C682.672 393.978 658.515 404.168 651.463 420.568C638.397 450.946 688.254 456.218 705.859 454.975C754.583 451.537 802.015 436.019 850.091 428.146C872.574 424.465 896.843 420.738 919.358 426.071C933.972 429.532 956.084 436.895 954.506 455.343C953.493 467.196 942.662 477.925 934.237 485.112C912.276 503.845 885.441 526.523 885.953 558.552C886.574 597.419 934.933 605.816 964.925 606.176C1022.51 606.866 1081.09 598.397 1138.07 590.989C1186.11 584.744 1234.03 577.54 1281.81 569.587C1289.9 568.242 1297.99 566.884 1306.07 565.46C1314.14 564.037 1301.47 552.451 1295.51 553.503C1209.76 568.625 1123.24 581.317 1036.53 589.324C1005.63 592.178 892.577 613.185 902.603 556.411C905.35 540.857 915.289 526.097 925.787 514.641C938.245 501.05 955.957 492.57 965.266 476.08C986.916 437.725 933.423 415.638 903.687 412.183C857.598 406.826 808.828 421.93 764.204 431.434C740.834 436.411 716.92 442.117 692.958 443.077C686.764 443.326 675.34 444.668 669.953 440.789C659.532 433.285 670.922 422.825 677.404 417.458C695.271 402.664 717.26 393.116 736.261 379.879C748.981 371.017 770.736 355.967 770.698 338.258C770.619 303.267 706.26 297.887 683.09 296.194C652.765 293.978 621.972 295.561 591.929 300.156C558.377 305.288 522.49 318.084 488.379 309.629C454.912 301.333 493.302 279.559 506.295 271.659C524.295 260.715 542.619 249.494 558.268 235.28C583.023 212.792 587.178 187.305 554.426 170.414C513.791 149.458 463.996 154.529 420.406 160.581C369.616 167.634 319.699 180.889 268.694 186.336C257.718 187.507 226.055 193.021 218.792 181.043C212.114 170.025 228.899 154.843 235.695 148.576C263.43 123.01 297.356 105.038 326.885 81.7356C342.082 69.7452 369.062 48.4775 349.444 28.742C330.449 9.63525 293.097 8.28507 268.244 5.80493C187.165 -2.29001 104.508 0.65209 23.2405 4.50183C17.1683 4.78899 11.0956 5.08606 5.02657 5.44015C-5.15432 6.03419 5.99482 18.0385 12.2216 17.6754Z" fill="url(#paint0_linear_84_324)"/>
    <defs>
        <linearGradient id="paint0_linear_84_324" x1="154.388" y1="-9.40594" x2="1308.9" y2="655.838" gradientUnits="userSpaceOnUse">
            <stop stop-color="white" stop-opacity="0"/>
            <stop offset="0.479722" stop-color="#F37362"/>
            <stop offset="0.905" stop-color="white" stop-opacity="0"/>
        </linearGradient>
    </defs>
</svg>
