<svg width="825" height="475" viewBox="0 0 825 475" fill="none" xmlns="http://www.w3.org/2000/svg">
    <path d="M-791.563 7.31032C-797.551 38.0388 -791.7 73.1283 -774.762 99.4135C-732.262 165.382 -638.419 161.415 -570.964 149.281C-428.813 123.728 -293.525 67.7128 -150.714 43.1658C-18.8461 20.4954 133.925 16.9962 235.07 119.424C327.198 212.716 364.412 360.159 296.944 477.555C258.963 543.6 159.515 636.415 74.8315 599.652C7.80977 570.547 58.5407 482.222 88.2967 444.778C149.757 367.438 243.483 313.538 339.353 292.574C472.273 263.554 622.259 298.79 729.737 381.933C775.173 417.121 820.396 464.537 843.412 518.311C848.006 529.012 873.426 528.322 867.62 514.771C798.33 352.808 597.665 265.246 432.025 263.488C323.371 262.313 215.287 301.042 130.554 368.838C78.7173 410.333 8.48874 481.634 16.8466 555.155C25.0919 627.808 115.685 633.708 170.235 615.671C266.646 583.806 340.057 489.328 354.976 390.187C374.255 262.013 300.318 123.952 189.807 59.5445C69.3315 -10.684 -81.5145 6.79757 -211.77 34.4423C-294.552 52.0225 -375.845 75.8748 -457.209 98.9579C-530.982 119.863 -617.36 152.192 -694.847 131.962C-748.025 118.099 -776.584 66.9642 -766.213 13.7397C-763.814 1.43199 -789.19 -4.85958 -791.563 7.31032Z" fill="url(#paint0_linear_107_1294)"/>
    <defs>
        <linearGradient id="paint0_linear_107_1294" x1="-654" y1="82.5" x2="940" y2="475" gradientUnits="userSpaceOnUse">
            <stop stop-color="white" stop-opacity="0"/>
            <stop offset="0.479722" stop-color="#F37362"/>
            <stop offset="0.905" stop-color="white" stop-opacity="0"/>
        </linearGradient>
    </defs>
</svg>
